<svg version="1.1" id="Layer_1" xmlns="http://www.w3.org/2000/svg" xmlns:xlink="http://www.w3.org/1999/xlink" x="0px" y="0px"
	 width="100%" viewBox="0 0 416 448" enable-background="new 0 0 416 448" xml:space="preserve">
<path fill="#000000" opacity="1.000000" stroke="none" 
	d="
M188.477509,420.863342 
	C188.906555,425.106750 189.237854,428.923523 189.746429,432.716522 
	C190.164734,435.836334 188.809128,437.795319 185.833969,437.884521 
	C177.544754,438.133087 169.213333,439.409546 160.975021,437.215088 
	C156.907104,436.131439 154.859528,433.863831 153.680954,429.505005 
	C148.251373,409.424133 151.901245,389.932556 156.773010,370.495728 
	C157.845978,366.214966 158.282471,362.917999 153.635010,360.404816 
	C150.453735,358.684479 151.253403,355.970062 153.590103,353.820923 
	C156.605316,351.047882 157.633698,348.445831 156.360138,343.899689 
	C154.650620,337.797363 157.636139,331.460602 158.118576,325.167755 
	C158.257965,323.349518 159.201050,321.397308 157.534622,320.040039 
	C155.727219,318.567963 154.174469,320.778015 152.491684,320.904816 
	C145.029633,321.467102 140.083694,326.290894 134.798691,330.739319 
	C131.012405,333.926239 126.261040,335.286316 121.459763,335.992554 
	C111.616745,337.440369 102.781410,329.197083 101.688515,317.923004 
	C101.009468,310.918152 102.397781,304.942200 109.277924,301.497253 
	C111.345413,300.462036 111.793114,298.854950 111.956795,296.644867 
	C112.536438,288.818420 115.226631,286.900726 123.096436,288.413422 
	C124.794052,288.739746 126.379402,288.848694 127.935776,287.979919 
	C137.808258,282.469116 147.147598,276.149078 156.223022,269.886047 
	C156.148636,268.178436 155.337402,267.784363 154.333908,267.385986 
	C127.910027,256.895782 110.315544,238.249985 104.193665,210.310333 
	C100.054565,191.419937 104.051666,173.045364 113.294556,156.276978 
	C120.997665,142.302063 129.782349,128.951187 142.449707,118.592278 
	C149.788696,112.590721 158.453171,109.879601 167.066605,106.828285 
	C168.619019,106.278328 170.311127,106.085312 171.828339,104.571892 
	C168.072418,99.579048 162.748444,96.593674 157.604385,93.438812 
	C152.638184,90.393021 147.319641,87.877220 142.555740,84.555176 
	C131.962082,77.167839 125.841797,67.072174 125.706863,53.879826 
	C125.611649,44.570606 125.228638,35.270992 127.627937,26.068504 
	C129.549133,18.699781 134.013840,14.172183 141.043396,11.974666 
	C145.818192,10.482018 149.885773,12.224386 153.461380,15.356062 
	C164.781860,25.271049 173.364014,37.127956 179.546738,50.893711 
	C186.475708,66.320946 189.056870,82.649559 190.541748,99.052254 
	C191.778687,100.486748 193.175674,100.006172 194.450317,99.886993 
	C220.415894,97.459236 245.389862,102.760269 270.220245,109.417931 
	C274.664368,110.609505 277.700195,113.646622 281.039886,116.314819 
	C283.639801,118.391983 285.411835,118.435028 288.325897,116.275734 
	C305.344666,103.664986 319.943207,88.230019 336.676422,75.291435 
	C343.883911,69.718399 351.887665,68.953552 360.303406,70.190979 
	C364.711823,70.839180 366.575653,74.377518 366.804840,78.561737 
	C367.127594,84.455399 366.240875,90.229065 363.671234,95.573250 
	C356.309937,110.882843 345.434784,122.832664 330.098267,130.565277 
	C323.975616,133.652283 317.284851,133.948181 310.777466,135.187912 
	C309.148010,135.498337 307.449249,135.467651 305.500732,137.123184 
	C326.215454,161.957535 329.811310,190.688080 323.669830,221.465073 
	C317.311157,253.330688 296.832153,273.580719 268.652313,288.231873 
	C272.485504,295.521088 275.486694,303.208557 278.663788,310.821442 
	C279.215149,312.142578 281.181671,312.869202 282.486816,313.880371 
	C289.301941,319.160400 289.524139,325.810577 283.079926,331.535156 
	C280.951996,333.425446 280.471863,339.229736 282.360168,341.247559 
	C283.918579,342.912872 287.738708,343.082367 286.563080,346.509125 
	C285.232208,350.388397 284.358887,355.135010 280.249084,356.896301 
	C275.278564,359.026459 271.579193,362.899933 266.858032,365.281250 
	C263.026886,367.213654 259.417114,369.584198 255.589752,371.524994 
	C253.825073,372.419861 253.912537,373.944000 253.765717,375.310760 
	C253.197693,380.598328 252.526505,385.899200 252.411697,391.206299 
	C252.127991,404.320007 252.129669,417.439911 252.017441,430.557312 
	C251.964249,436.774689 250.644257,438.311523 244.369217,438.306244 
	C235.910477,438.299103 227.534195,440.169922 218.969894,438.622498 
	C214.054153,437.734253 212.657303,435.669800 213.946335,431.216370 
	C218.718094,414.730499 218.354065,397.666870 219.567062,380.786560 
	C219.710953,378.784332 220.441376,376.415192 218.180908,374.453278 
	C212.933533,377.742493 207.221375,376.358551 201.587738,375.484833 
	C197.377197,374.831848 195.318848,375.652771 193.862137,380.469879 
	C189.899658,393.573242 189.817596,407.056976 188.477509,420.863342 
M111.835304,170.340500 
	C109.633453,176.315384 108.374840,182.539627 107.676849,188.817291 
	C106.940895,195.436264 106.383812,202.335800 109.344055,208.476730 
	C110.980728,211.871948 113.022926,214.715607 113.698372,218.782623 
	C115.620850,230.358276 122.695305,239.300507 130.739395,247.381729 
	C134.870850,251.532257 139.996017,254.473022 145.294785,256.952911 
	C148.961533,258.669006 151.735260,257.578949 153.275635,253.677063 
	C154.761963,249.912125 153.088623,248.383408 149.570282,247.214722 
	C144.038315,245.377151 138.932602,242.508652 134.099243,239.224319 
	C132.837601,238.367035 131.506287,237.244720 132.599289,235.544052 
	C133.704727,233.824005 135.205750,234.636642 136.529526,235.441605 
	C140.954208,238.132248 145.569794,240.371460 150.485886,242.069931 
	C153.437836,243.089783 155.591278,242.913071 158.213608,240.807465 
	C162.574539,237.305908 162.855484,233.252594 161.218781,228.583710 
	C159.014938,222.297043 156.528168,216.093719 155.314407,209.513809 
	C153.830353,201.468628 152.866409,193.385162 154.537766,185.227905 
	C154.868271,183.614777 154.897034,181.509018 157.258652,181.871765 
	C159.443909,182.207413 159.232758,184.298111 159.198456,185.916962 
	C159.163528,187.566025 158.644714,189.213028 158.679031,190.853790 
	C158.771454,195.272308 160.505325,196.433228 164.773544,195.089966 
	C165.722610,194.791306 166.661606,194.412598 167.541534,193.949646 
	C180.528366,187.117004 190.338425,177.361389 195.633118,163.432556 
	C196.316818,161.633881 196.757431,158.959381 199.282364,159.411118 
	C202.310120,159.952805 201.325333,162.898056 201.172348,164.831802 
	C200.799683,169.541824 201.096085,174.142715 202.264267,178.705505 
	C202.988770,181.535370 204.631638,183.249405 207.605423,183.947998 
	C214.771744,185.631470 219.501297,189.802887 221.880692,197.078323 
	C223.239624,201.233490 225.501724,205.378006 228.329300,208.699814 
	C232.330566,213.400528 237.956696,211.810760 242.696930,205.372375 
	C249.495209,196.138687 253.700897,185.657242 257.576538,174.987152 
	C258.231079,173.185059 258.539856,169.901230 261.506287,170.864090 
	C264.491882,171.833160 262.840668,174.561600 262.205078,176.448212 
	C260.882721,180.373154 260.860352,184.300781 261.598358,188.284592 
	C263.876343,200.580948 263.887939,200.578812 275.234772,195.639328 
	C279.779572,193.660904 281.450195,194.383469 282.011414,199.174255 
	C282.972687,207.380310 287.820892,215.501724 282.672119,223.935303 
	C282.175140,224.749359 282.862518,226.219421 282.787933,227.371231 
	C282.583801,230.523727 281.510254,233.460297 278.558289,234.847351 
	C270.400787,238.680283 267.053467,246.463943 263.078186,253.605026 
	C261.925720,255.675293 261.045105,258.979797 265.008820,260.663696 
	C267.221375,261.603668 267.492676,263.947571 265.451874,265.535431 
	C262.506866,267.826904 261.887817,271.087585 261.278259,274.331818 
	C260.281494,279.636719 262.545868,281.833435 267.836243,281.202362 
	C271.036774,280.820587 273.975159,279.980255 276.696503,278.162659 
	C292.316010,267.730347 305.543793,255.020554 313.756653,237.888428 
	C320.850677,223.090317 321.805298,207.323975 320.960968,191.079361 
	C320.040344,173.366547 315.108063,157.508408 304.163940,143.466339 
	C294.897186,131.576477 283.924255,120.917770 270.345978,115.248688 
	C247.267410,105.613113 222.349686,101.356125 197.513428,104.716904 
	C173.896469,107.912697 150.213974,112.924927 134.256760,134.208023 
	C125.837151,145.437744 117.387505,156.481110 111.835304,170.340500 
M171.420380,238.240250 
	C174.215103,245.863358 174.113159,246.085938 165.125732,251.983551 
	C178.456100,266.600739 236.943634,276.052704 251.040649,265.867981 
	C246.965408,256.821106 247.923035,252.757141 255.619995,246.545929 
	C256.915985,245.500122 258.255798,244.508530 259.578247,243.495682 
	C266.248260,238.387131 271.544312,232.135239 275.874268,224.486755 
	C264.165985,216.775177 260.233521,204.710114 256.813263,191.386276 
	C254.820374,194.831375 253.427856,197.267441 252.006805,199.686768 
	C250.676147,201.952240 249.912750,203.966202 252.115128,206.407928 
	C254.328690,208.862015 253.527557,212.138077 253.071671,215.065704 
	C251.858368,222.857712 249.091827,230.198715 245.831131,237.317673 
	C244.124680,241.043320 242.195114,245.287277 237.026871,244.739822 
	C233.966141,244.415619 232.312866,238.910324 233.020035,233.396927 
	C233.666260,228.358719 234.887238,223.436707 236.460602,218.113098 
	C230.710571,220.743469 225.682877,222.227798 222.005478,216.163010 
	C216.648010,220.266983 214.609268,220.122833 210.465469,215.321228 
	C206.932098,211.226913 204.696136,206.400513 202.881943,201.349594 
	C199.750977,192.632568 197.897202,183.586884 196.158875,173.713699 
	C195.185562,175.264130 194.699341,176.109009 194.146881,176.908112 
	C186.661316,187.735336 177.399353,196.536209 164.439941,200.067459 
	C159.214798,201.491257 158.867493,203.804932 159.828918,208.258347 
	C162.070801,218.643082 166.751678,228.012558 171.420380,238.240250 
M238.513596,334.797760 
	C235.152161,340.874695 228.431610,336.535797 223.443100,339.533691 
	C227.233551,341.542603 225.541275,343.695770 224.026352,345.683228 
	C222.322067,347.919128 219.893219,348.872955 217.444427,347.325287 
	C215.658508,346.196564 213.397690,344.704224 214.854568,341.778229 
	C215.950455,339.577271 214.831299,338.488434 212.833755,337.591125 
	C211.475784,339.053558 210.259476,340.363434 209.220886,341.481903 
	C207.343887,341.680145 207.380173,339.159454 205.301895,339.764832 
	C203.803802,341.236542 201.064575,342.688080 200.519348,344.726440 
	C199.451309,348.719330 196.621384,349.418732 193.534958,350.044952 
	C189.704742,350.822052 185.818298,351.321899 181.483566,352.017365 
	C183.744644,356.004608 185.494705,359.607025 179.890503,361.862518 
	C178.726318,362.331085 178.779678,364.467072 179.777130,365.451233 
	C182.861420,368.494537 187.044769,368.375366 190.964066,368.785583 
	C194.106506,369.114471 195.272247,366.889130 196.023605,364.300629 
	C196.987656,360.979370 199.785049,359.441254 202.577362,360.372589 
	C208.173935,362.239288 215.589264,358.378906 219.321136,367.632507 
	C219.840805,364.674011 219.965744,363.696533 220.191055,362.742798 
	C220.524185,361.332672 221.219467,360.073608 222.896942,360.555145 
	C224.248947,360.943237 224.947739,362.134583 225.091293,363.598480 
	C225.940369,372.257111 229.433533,374.299835 237.362610,370.945862 
	C240.271545,369.715424 241.256226,368.124481 239.492523,365.184601 
	C238.621613,363.732880 236.780167,362.060425 238.569214,360.305023 
	C240.529404,358.381805 241.585693,361.365295 243.181931,361.676208 
	C245.168793,357.034760 246.103241,356.799377 249.762177,359.999908 
	C250.639267,360.767120 251.428925,361.636536 252.323578,362.381073 
	C255.508209,365.031311 261.702240,363.697845 265.099060,359.108643 
	C267.961243,355.241791 263.745911,354.096344 261.686554,352.421204 
	C258.557068,349.875580 258.229889,347.431580 261.076569,344.459503 
	C262.373901,343.105011 264.433136,342.255798 264.657928,339.914062 
	C261.834900,338.266205 259.101959,339.192780 256.392151,339.866699 
	C253.818161,340.506866 251.303558,340.753601 248.579163,340.720947 
	C243.946335,340.665344 242.412384,336.564575 238.513596,334.797760 
M132.408142,27.056244 
	C129.525711,37.139000 129.930618,47.423641 130.606720,57.709118 
	C130.889465,62.010704 133.226990,64.935143 136.927780,67.185760 
	C142.601593,70.636261 148.919891,71.909256 155.215179,73.377373 
	C158.028946,74.033569 158.728256,72.562538 158.680908,70.112114 
	C158.523209,61.953976 159.886032,53.915092 161.008682,45.891197 
	C162.032654,38.572685 160.239288,32.008701 156.802994,25.851986 
	C152.250549,17.695541 144.040802,15.234373 137.593079,19.578680 
	C135.100449,21.258154 133.915726,23.785505 132.408142,27.056244 
M211.062607,291.993866 
	C208.716232,290.855652 206.495132,290.135773 204.337143,292.545959 
	C202.975632,294.066620 201.016235,294.818390 198.984894,294.952911 
	C196.654526,295.107330 195.682922,296.050568 195.088196,298.470673 
	C193.212631,306.103088 194.243958,312.666840 198.824188,319.441132 
	C203.967209,327.047760 203.376068,327.781403 212.411545,326.583801 
	C219.361465,325.662689 226.578384,325.531647 233.570709,322.167633 
	C230.179794,317.799744 230.924164,313.453674 232.581512,309.184296 
	C234.617920,303.938416 232.953995,299.066345 231.378769,294.167084 
	C230.977997,292.920624 230.451523,291.591156 228.815445,291.449036 
	C224.281387,291.055206 219.744141,287.163208 215.167953,291.606415 
	C214.503113,292.251953 212.959091,291.992004 211.062607,291.993866 
M166.100922,89.324348 
	C167.294617,95.782494 172.764145,98.671898 177.292953,102.102913 
	C180.417236,104.469856 184.392899,102.042747 184.620132,97.965691 
	C184.785583,94.996826 184.463669,91.996895 184.298691,89.014160 
	C183.282639,70.642990 176.557999,54.259644 166.380951,37.518345 
	C166.411499,44.327496 165.611572,49.663681 164.792221,55.018707 
	C163.078186,66.221153 162.323196,77.492310 166.100922,89.324348 
M348.508301,110.046188 
	C351.000092,106.718246 353.697784,103.522438 355.937408,100.032677 
	C359.678558,94.203247 362.132507,87.892082 361.680115,80.766228 
	C361.538940,78.541893 361.272766,75.945572 358.771759,75.532646 
	C354.560333,74.837357 350.163055,74.004707 345.979401,75.475395 
	C340.885895,77.265915 337.702057,80.070633 336.962891,86.432610 
	C335.809967,96.356026 333.772736,106.294708 329.036987,115.931664 
	C336.509247,116.008324 342.797729,115.209511 348.508301,110.046188 
M128.173172,328.834045 
	C132.186234,327.026337 135.569641,324.409119 138.326492,320.974640 
	C139.432632,319.596619 140.330505,318.075989 139.006348,316.487701 
	C133.951477,310.424652 130.415558,303.492035 127.063675,296.418579 
	C126.543518,295.320892 125.205933,294.534454 124.114105,293.800934 
	C122.288063,292.574127 120.121727,291.373016 118.121346,292.826782 
	C115.947594,294.406555 116.038086,296.813110 117.308823,299.107635 
	C119.193764,302.511230 118.019363,304.090027 114.394127,305.136871 
	C107.565079,307.108917 105.157730,311.498566 106.529350,318.450348 
	C108.725021,329.578583 115.613853,333.103455 128.173172,328.834045 
M323.129974,116.619629 
	C328.415161,108.306328 330.640686,99.211624 330.027466,89.064766 
	C316.056946,99.523773 303.406036,111.316315 289.191589,121.770348 
	C295.242188,127.193153 299.791016,133.497528 308.644867,130.042892 
	C315.046295,127.545158 319.334412,122.920433 323.129974,116.619629 
M188.243622,307.963135 
	C190.004379,304.130737 190.443878,300.018005 190.733582,295.888245 
	C190.854584,294.163361 190.551941,291.869141 188.333435,292.540741 
	C181.049072,294.745911 175.164810,291.377258 169.198380,288.099213 
	C165.433716,300.959442 174.414536,310.694000 188.243622,307.963135 
M238.340836,236.278137 
	C240.059113,237.394699 240.237946,237.474457 241.136795,235.458893 
	C244.310165,228.342987 246.813004,220.983337 248.527542,213.378174 
	C248.836807,212.006317 249.212173,210.350433 246.229462,209.027222 
	C240.964493,217.051941 238.383408,225.881607 238.340836,236.278137 
M282.276367,320.423615 
	C280.437164,317.958038 278.351135,316.031677 274.749084,316.842560 
	C274.423553,320.278351 278.270660,323.467712 274.879822,326.754761 
	C272.322510,329.233826 269.937897,331.891022 267.291931,334.662079 
	C270.072968,336.867523 272.732819,337.807617 275.988525,338.473816 
	C275.864899,337.055145 276.030945,335.982330 275.655457,335.155334 
	C273.814728,331.101135 273.785339,328.315826 279.269287,327.423340 
	C282.412323,326.911835 282.938171,323.999939 282.276367,320.423615 
M244.417892,295.966461 
	C246.189697,294.215576 248.017349,292.500916 248.449738,289.915253 
	C247.695496,288.158722 246.083862,287.310883 244.667175,286.710999 
	C241.535522,285.384979 237.515869,286.216431 236.071762,288.374786 
	C234.323563,290.987671 235.819916,295.015106 237.898575,297.605927 
	C240.004089,300.230225 242.005829,297.604980 244.417892,295.966461 
M182.529480,432.771271 
	C183.554962,432.574554 184.597702,432.242828 184.375763,430.952942 
	C184.101944,429.361481 182.684036,429.485321 181.596848,429.656036 
	C175.914154,430.548340 170.434845,429.117615 164.873703,428.457550 
	C162.888214,428.221893 160.874344,426.621765 158.513657,428.247345 
	C158.808105,431.351807 161.156845,431.993378 163.572205,432.667053 
	C169.633530,434.357758 175.704010,433.365601 182.529480,432.771271 
M223.213898,431.233826 
	C222.085159,431.534485 220.436050,430.871338 220.056870,433.423218 
	C228.965652,434.327667 237.618774,434.275299 246.173752,432.687408 
	C246.141800,431.826996 246.109833,430.966583 246.077881,430.106171 
	C238.740875,431.351746 231.402847,431.202545 223.213898,431.233826 
M156.770325,79.876007 
	C153.282272,78.178871 149.904663,76.054634 145.453537,76.521187 
	C146.716522,78.864677 148.838638,78.623390 150.804031,79.742104 
	C148.406006,81.973839 148.704849,83.814995 151.903915,84.589470 
	C154.580460,85.237450 156.169830,82.484734 158.613693,82.094536 
	C158.978851,82.036232 159.119461,79.839714 156.770325,79.876007 
M278.125946,347.439911 
	C273.643921,343.935577 271.918427,348.526947 268.239960,349.994385 
	C276.205139,353.471405 276.993134,353.260437 278.125946,347.439911 
M170.942917,272.944061 
	C170.691727,274.250244 169.768219,275.641113 171.591660,277.115417 
	C174.524643,273.096710 176.249878,269.223541 173.732162,263.943054 
	C171.977310,266.813538 171.818771,269.616180 170.942917,272.944061 
M188.483612,344.692993 
	C190.665054,343.884430 190.100082,342.603790 188.986694,341.350647 
	C188.017929,340.260223 186.757080,340.040222 185.448532,340.694000 
	C184.392075,341.221741 183.340424,342.069061 183.699051,343.313263 
	C184.321930,345.474152 186.290924,344.684784 188.483612,344.692993 
z"/>
<path fill="#000000" opacity="1.000000" stroke="none" 
	d="
M212.238403,241.068420 
	C211.031097,242.451080 210.120773,243.696869 208.914505,244.495895 
	C206.013657,246.417404 202.820557,248.628387 199.332642,246.528748 
	C195.956924,244.496674 196.808197,240.737778 196.991577,237.479584 
	C197.178284,234.162277 198.319168,232.146805 202.320724,233.316162 
	C204.651306,233.997238 207.182281,234.125519 209.603912,234.456360 
	C214.424866,235.114990 214.618774,237.234619 212.238403,241.068420 
z"/>
<path fill="#000000" opacity="1.000000" stroke="none" 
	d="
M182.603012,209.141479 
	C185.389786,211.676804 189.460892,213.516205 188.839752,217.295120 
	C188.093338,221.836166 182.821976,221.075699 179.652924,222.841080 
	C178.397797,223.540253 176.664124,224.165924 175.869019,222.183243 
	C175.122742,220.322250 176.628021,219.535095 178.005951,218.874817 
	C179.628021,218.097565 181.276840,217.376144 182.920532,216.627563 
	C182.911560,214.197266 180.816879,213.725861 179.607025,212.548233 
	C178.511246,211.481659 177.177536,210.390030 178.357605,208.802399 
	C179.535416,207.217819 181.002716,208.101532 182.603012,209.141479 
z"/>
</svg>