<svg version="1.1" id="Layer_1" xmlns="http://www.w3.org/2000/svg" xmlns:xlink="http://www.w3.org/1999/xlink" x="0px" y="0px"
	 width="100%" viewBox="0 0 900 500" enable-background="new 0 0 900 500" xml:space="preserve">
<path fill="#F8D215" opacity="1.000000" stroke="none" 
	d="
M587.000000,501.000000 
	C391.333344,501.000000 196.166672,501.000000 1.000000,501.000000 
	C1.000000,334.333344 1.000000,167.666672 1.000000,1.000000 
	C301.000000,1.000000 601.000000,1.000000 901.000000,1.000000 
	C901.000000,167.666672 901.000000,334.333344 901.000000,501.000000 
	C796.500000,501.000000 692.000000,501.000000 587.000000,501.000000 
M312.995239,311.500000 
	C312.995239,337.248077 312.995239,362.996155 312.995239,388.691132 
	C402.644775,388.691132 491.670715,388.691132 580.675171,388.691132 
	C580.675171,340.677612 580.675171,292.972534 580.675171,245.304947 
	C491.320221,245.304947 402.294586,245.304947 312.995239,245.304947 
	C312.995239,267.238373 312.995239,288.869202 312.995239,311.500000 
M512.750488,187.788635 
	C512.748169,192.618759 512.753235,197.448898 512.742004,202.279007 
	C512.718994,212.144424 512.296448,212.582321 502.481750,213.110199 
	C502.194946,213.125641 501.921478,213.388855 501.534180,213.593338 
	C501.534180,216.611206 501.534180,219.663742 501.534180,222.938217 
	C505.185760,222.938217 508.517212,223.150345 511.813385,222.899323 
	C522.665710,222.072876 527.911377,216.330017 527.996399,205.373657 
	C528.039062,199.877655 527.989563,194.380997 528.010620,188.884750 
	C528.043518,180.275223 529.537231,178.169800 537.791321,175.312073 
	C537.791321,172.933838 537.811829,170.447922 537.782227,167.962585 
	C537.768494,166.809616 537.657227,165.657776 537.593384,164.560638 
	C529.686890,162.082336 528.022522,159.807846 528.004883,151.596054 
	C527.991333,145.267044 528.097656,138.935272 527.943542,132.609772 
	C527.777344,125.790955 524.716003,120.417290 518.041565,118.585693 
	C512.779907,117.141785 507.120117,117.148834 501.414734,116.485580 
	C501.414734,120.650116 501.414734,123.585915 501.414734,126.749756 
	C502.397247,126.860825 503.186981,127.005226 503.980560,127.031235 
	C511.473541,127.276718 512.569336,128.287613 512.733154,135.769455 
	C512.853455,141.263123 513.054321,146.781876 512.683838,152.253189 
	C512.107910,160.758636 514.356384,167.301498 525.312866,170.097839 
	C514.527466,172.405991 512.224365,178.751587 512.750488,187.788635 
M389.615662,211.982422 
	C388.814545,209.552368 387.486786,207.157654 387.320862,204.684982 
	C386.964813,199.378769 387.030548,194.025146 387.246735,188.704056 
	C387.593079,180.179947 386.381104,172.677429 374.984253,169.931229 
	C385.122955,167.275803 387.733978,161.219940 387.250275,153.008667 
	C386.966705,148.195068 387.205444,143.350845 387.205353,138.520401 
	C387.205200,127.776779 387.337860,127.632759 397.716187,126.842903 
	C397.977936,126.822983 398.215057,126.478615 398.536194,126.229233 
	C398.536194,123.338974 398.536194,120.410652 398.536194,117.315178 
	C394.146210,117.315178 389.963867,116.837029 385.931702,117.412071 
	C376.795135,118.715080 372.079773,124.568825 372.000793,133.942490 
	C371.953094,139.605408 371.973999,145.268951 371.971924,150.932205 
	C371.968689,159.724884 370.629730,161.647903 362.313110,164.750000 
	C362.313110,168.378616 362.313110,172.014038 362.313110,175.599564 
	C369.573334,177.485474 371.882080,180.344101 371.952393,187.569321 
	C372.012360,193.731735 371.943329,199.895309 371.978485,206.058105 
	C372.032959,215.611969 376.909821,221.454117 386.376495,222.686600 
	C390.261200,223.192368 394.266724,222.770309 398.504150,222.770309 
	C398.504150,219.476273 398.504150,216.413086 398.504150,213.370483 
	C395.584808,213.030746 392.971649,212.726654 389.615662,211.982422 
M484.233398,204.311111 
	C484.233398,201.040619 484.233398,197.770126 484.233398,194.292603 
	C460.533844,194.292603 437.514771,194.292603 414.366455,194.292603 
	C414.366455,198.660995 414.366455,202.677780 414.366455,207.016785 
	C437.079865,207.016785 459.353027,207.036057 481.625702,206.942764 
	C482.472382,206.939224 483.314453,205.847595 484.233398,204.311111 
z"/>
<path fill="#020202" opacity="1.000000" stroke="none" 
	d="
M312.995239,311.000000 
	C312.995239,288.869202 312.995239,267.238373 312.995239,245.304947 
	C402.294586,245.304947 491.320221,245.304947 580.675171,245.304947 
	C580.675171,292.972534 580.675171,340.677612 580.675171,388.691132 
	C491.670715,388.691132 402.644775,388.691132 312.995239,388.691132 
	C312.995239,362.996155 312.995239,337.248077 312.995239,311.000000 
M510.817719,277.325012 
	C507.429169,283.180298 503.034607,288.685242 500.849487,294.959625 
	C495.317535,310.844177 494.944885,327.362579 498.449951,343.733795 
	C501.556366,358.243073 509.671509,368.201630 525.377197,370.718994 
	C544.932800,373.853394 561.196167,364.875671 565.469360,347.322815 
	C566.898010,341.454346 567.202637,335.052185 566.658691,329.016724 
	C565.459351,315.709015 557.641663,306.661194 545.858582,303.986755 
	C534.675476,301.448486 524.302246,302.430359 515.865479,313.358551 
	C516.650879,303.167908 518.188538,294.727661 525.340271,288.672272 
	C535.918335,279.715790 547.390625,283.155273 559.088257,287.186829 
	C560.000671,281.751526 560.960449,276.727722 561.574707,271.661987 
	C561.672180,270.858276 560.371582,269.302673 559.450806,269.044159 
	C542.228271,264.209137 525.575195,263.271301 510.817719,277.325012 
M381.497986,266.008575 
	C366.417755,266.008575 351.337524,266.008575 336.285583,266.008575 
	C336.285583,301.338654 336.285583,335.931854 336.285583,370.652344 
	C357.083954,370.652344 377.626068,370.652344 398.192688,370.652344 
	C398.192688,365.016113 398.192688,359.744415 398.192688,353.965332 
	C384.516785,353.965332 371.108063,353.965332 357.614990,353.965332 
	C357.614990,344.069702 357.614990,334.689941 357.614990,324.908417 
	C370.086670,324.908417 382.186249,324.908417 394.438843,324.908417 
	C394.438843,319.098663 394.438843,313.701080 394.438843,307.934875 
	C382.000610,307.934875 369.892883,307.934875 357.568970,307.934875 
	C357.568970,299.514526 357.568970,291.471436 357.568970,282.964874 
	C371.158569,282.964874 384.408569,282.964874 397.705627,282.964874 
	C397.705627,277.096344 397.705627,271.698853 397.705627,266.008575 
	C392.437225,266.008575 387.466797,266.008575 381.497986,266.008575 
M416.305206,303.913849 
	C419.176971,314.002838 426.724579,319.339111 435.789642,323.192474 
	C442.509796,326.049042 449.515808,328.446075 455.786407,332.093292 
	C463.669250,336.678284 463.441864,346.554077 455.222656,350.415375 
	C450.359009,352.700226 444.304596,353.770813 438.946747,353.347687 
	C432.313812,352.823853 425.847809,350.186554 419.024261,348.387024 
	C418.415710,354.246887 417.768860,360.475555 417.108063,366.838593 
	C432.790985,371.557281 448.148041,373.123810 463.630005,368.077118 
	C472.457397,365.199524 479.130005,359.850647 482.109131,350.649323 
	C487.470551,334.090118 480.095703,320.090759 462.383942,313.154083 
	C456.198425,310.731567 449.976807,308.368042 443.942535,305.604584 
	C440.113495,303.851044 437.596252,300.826233 437.895447,296.147736 
	C438.207336,291.271729 440.126404,286.994324 444.719818,285.423828 
	C448.994049,283.962463 453.819458,283.217316 458.311981,283.515625 
	C464.026184,283.895081 469.649536,285.642792 475.679626,286.875763 
	C476.145569,282.391632 476.362640,277.760223 477.186218,273.239288 
	C477.769836,270.035492 476.422607,268.886688 473.719025,268.589844 
	C465.477844,267.685150 457.212830,266.030670 448.983643,266.175659 
	C428.898102,266.529449 412.375916,278.120544 416.305206,303.913849 
z"/>
<path fill="#070505" opacity="1.000000" stroke="none" 
	d="
M512.750732,187.326279 
	C512.224365,178.751587 514.527466,172.405991 525.312866,170.097839 
	C514.356384,167.301498 512.107910,160.758636 512.683838,152.253189 
	C513.054321,146.781876 512.853455,141.263123 512.733154,135.769455 
	C512.569336,128.287613 511.473541,127.276718 503.980560,127.031235 
	C503.186981,127.005226 502.397247,126.860825 501.414734,126.749756 
	C501.414734,123.585915 501.414734,120.650116 501.414734,116.485580 
	C507.120117,117.148834 512.779907,117.141785 518.041565,118.585693 
	C524.716003,120.417290 527.777344,125.790955 527.943542,132.609772 
	C528.097656,138.935272 527.991333,145.267044 528.004883,151.596054 
	C528.022522,159.807846 529.686890,162.082336 537.593384,164.560638 
	C537.657227,165.657776 537.768494,166.809616 537.782227,167.962585 
	C537.811829,170.447922 537.791321,172.933838 537.791321,175.312073 
	C529.537231,178.169800 528.043518,180.275223 528.010620,188.884750 
	C527.989563,194.380997 528.039062,199.877655 527.996399,205.373657 
	C527.911377,216.330017 522.665710,222.072876 511.813385,222.899323 
	C508.517212,223.150345 505.185760,222.938217 501.534180,222.938217 
	C501.534180,219.663742 501.534180,216.611206 501.534180,213.593338 
	C501.921478,213.388855 502.194946,213.125641 502.481750,213.110199 
	C512.296448,212.582321 512.718994,212.144424 512.742004,202.279007 
	C512.753235,197.448898 512.748169,192.618759 512.750732,187.326279 
z"/>
<path fill="#070505" opacity="1.000000" stroke="none" 
	d="
M389.987091,212.202484 
	C392.971649,212.726654 395.584808,213.030746 398.504150,213.370483 
	C398.504150,216.413086 398.504150,219.476273 398.504150,222.770309 
	C394.266724,222.770309 390.261200,223.192368 386.376495,222.686600 
	C376.909821,221.454117 372.032959,215.611969 371.978485,206.058105 
	C371.943329,199.895309 372.012360,193.731735 371.952393,187.569321 
	C371.882080,180.344101 369.573334,177.485474 362.313110,175.599564 
	C362.313110,172.014038 362.313110,168.378616 362.313110,164.750000 
	C370.629730,161.647903 371.968689,159.724884 371.971924,150.932205 
	C371.973999,145.268951 371.953094,139.605408 372.000793,133.942490 
	C372.079773,124.568825 376.795135,118.715080 385.931702,117.412071 
	C389.963867,116.837029 394.146210,117.315178 398.536194,117.315178 
	C398.536194,120.410652 398.536194,123.338974 398.536194,126.229233 
	C398.215057,126.478615 397.977936,126.822983 397.716187,126.842903 
	C387.337860,127.632759 387.205200,127.776779 387.205353,138.520401 
	C387.205444,143.350845 386.966705,148.195068 387.250275,153.008667 
	C387.733978,161.219940 385.122955,167.275803 374.984253,169.931229 
	C386.381104,172.677429 387.593079,180.179947 387.246735,188.704056 
	C387.030548,194.025146 386.964813,199.378769 387.320862,204.684982 
	C387.486786,207.157654 388.814545,209.552368 389.987091,212.202484 
z"/>
<path fill="#040305" opacity="1.000000" stroke="none" 
	d="
M484.196045,204.787048 
	C483.314453,205.847595 482.472382,206.939224 481.625702,206.942764 
	C459.353027,207.036057 437.079865,207.016785 414.366455,207.016785 
	C414.366455,202.677780 414.366455,198.660995 414.366455,194.292603 
	C437.514771,194.292603 460.533844,194.292603 484.233398,194.292603 
	C484.233398,197.770126 484.233398,201.040619 484.196045,204.787048 
z"/>
<path fill="#F3CF15" opacity="1.000000" stroke="none" 
	d="
M511.050903,277.057373 
	C525.575195,263.271301 542.228271,264.209137 559.450806,269.044159 
	C560.371582,269.302673 561.672180,270.858276 561.574707,271.661987 
	C560.960449,276.727722 560.000671,281.751526 559.088257,287.186829 
	C547.390625,283.155273 535.918335,279.715790 525.340271,288.672272 
	C518.188538,294.727661 516.650879,303.167908 515.865479,313.358551 
	C524.302246,302.430359 534.675476,301.448486 545.858582,303.986755 
	C557.641663,306.661194 565.459351,315.709015 566.658691,329.016724 
	C567.202637,335.052185 566.898010,341.454346 565.469360,347.322815 
	C561.196167,364.875671 544.932800,373.853394 525.377197,370.718994 
	C509.671509,368.201630 501.556366,358.243073 498.449951,343.733795 
	C494.944885,327.362579 495.317535,310.844177 500.849487,294.959625 
	C503.034607,288.685242 507.429169,283.180298 511.050903,277.057373 
M518.607178,344.429443 
	C521.211060,351.585724 525.402588,354.856689 532.036804,354.909637 
	C537.833679,354.955902 542.425232,351.536407 544.522949,345.312988 
	C546.559326,339.271545 546.321167,333.190155 543.822876,327.340118 
	C541.447266,321.777313 536.438965,318.727844 530.835754,319.123657 
	C524.852661,319.546326 520.550354,322.736603 519.299988,328.414825 
	C518.219543,333.321075 518.601196,338.549225 518.607178,344.429443 
z"/>
<path fill="#F7D114" opacity="1.000000" stroke="none" 
	d="
M381.997162,266.008575 
	C387.466797,266.008575 392.437225,266.008575 397.705627,266.008575 
	C397.705627,271.698853 397.705627,277.096344 397.705627,282.964874 
	C384.408569,282.964874 371.158569,282.964874 357.568970,282.964874 
	C357.568970,291.471436 357.568970,299.514526 357.568970,307.934875 
	C369.892883,307.934875 382.000610,307.934875 394.438843,307.934875 
	C394.438843,313.701080 394.438843,319.098663 394.438843,324.908417 
	C382.186249,324.908417 370.086670,324.908417 357.614990,324.908417 
	C357.614990,334.689941 357.614990,344.069702 357.614990,353.965332 
	C371.108063,353.965332 384.516785,353.965332 398.192688,353.965332 
	C398.192688,359.744415 398.192688,365.016113 398.192688,370.652344 
	C377.626068,370.652344 357.083954,370.652344 336.285583,370.652344 
	C336.285583,335.931854 336.285583,301.338654 336.285583,266.008575 
	C351.337524,266.008575 366.417755,266.008575 381.997162,266.008575 
z"/>
<path fill="#F3CF15" opacity="1.000000" stroke="none" 
	d="
M416.232361,303.511627 
	C412.375916,278.120544 428.898102,266.529449 448.983643,266.175659 
	C457.212830,266.030670 465.477844,267.685150 473.719025,268.589844 
	C476.422607,268.886688 477.769836,270.035492 477.186218,273.239288 
	C476.362640,277.760223 476.145569,282.391632 475.679626,286.875763 
	C469.649536,285.642792 464.026184,283.895081 458.311981,283.515625 
	C453.819458,283.217316 448.994049,283.962463 444.719818,285.423828 
	C440.126404,286.994324 438.207336,291.271729 437.895447,296.147736 
	C437.596252,300.826233 440.113495,303.851044 443.942535,305.604584 
	C449.976807,308.368042 456.198425,310.731567 462.383942,313.154083 
	C480.095703,320.090759 487.470551,334.090118 482.109131,350.649323 
	C479.130005,359.850647 472.457397,365.199524 463.630005,368.077118 
	C448.148041,373.123810 432.790985,371.557281 417.108063,366.838593 
	C417.768860,360.475555 418.415710,354.246887 419.024261,348.387024 
	C425.847809,350.186554 432.313812,352.823853 438.946747,353.347687 
	C444.304596,353.770813 450.359009,352.700226 455.222656,350.415375 
	C463.441864,346.554077 463.669250,336.678284 455.786407,332.093292 
	C449.515808,328.446075 442.509796,326.049042 435.789642,323.192474 
	C426.724579,319.339111 419.176971,314.002838 416.232361,303.511627 
z"/>
<path fill="#060504" opacity="1.000000" stroke="none" 
	d="
M518.471863,344.032288 
	C518.601196,338.549225 518.219543,333.321075 519.299988,328.414825 
	C520.550354,322.736603 524.852661,319.546326 530.835754,319.123657 
	C536.438965,318.727844 541.447266,321.777313 543.822876,327.340118 
	C546.321167,333.190155 546.559326,339.271545 544.522949,345.312988 
	C542.425232,351.536407 537.833679,354.955902 532.036804,354.909637 
	C525.402588,354.856689 521.211060,351.585724 518.471863,344.032288 
z"/>
</svg>
